<svg width="1440" height="900" viewBox="0 0 1440 900" fill="none" xmlns="http://www.w3.org/2000/svg">
<rect x="2" y="2" width="1436" height="896" rx="23" fill="#0D1728"/>
<path d="M3.5 64H1438" stroke="#4C4E5B" stroke-width="4"/>
<circle cx="46" cy="32" r="10" fill="#4C4E5B"/>
<circle cx="88" cy="32" r="10" fill="#4C4E5B"/>
<circle cx="130" cy="32" r="10" fill="#4C4E5B"/>
<path d="M4 66H266V898H29C15.1929 898 4 886.807 4 873V66Z" fill="#0F0F1A"/>
<rect x="16" y="259" width="236" height="371" rx="25" fill="#0D1728"/>
<rect x="16" y="811" width="236" height="55" rx="25" fill="#151E2D"/>
<circle cx="59.5" cy="302.5" r="27.5" fill="#151E2D"/>
<rect x="107" y="291" width="129" height="24" rx="10" fill="#151E2D"/>
<circle cx="59.5" cy="373.5" r="27.5" fill="#151E2D"/>
<rect x="107" y="362" width="129" height="24" rx="10" fill="#151E2D"/>
<circle cx="59.5" cy="444.5" r="27.5" fill="#151E2D"/>
<rect x="107" y="433" width="129" height="24" rx="10" fill="#151E2D"/>
<circle cx="59.5" cy="515.5" r="27.5" fill="#151E2D"/>
<rect x="107" y="504" width="129" height="24" rx="10" fill="#151E2D"/>
<circle cx="59.5" cy="586.5" r="27.5" fill="#151E2D"/>
<rect x="107" y="575" width="129" height="24" rx="10" fill="#151E2D"/>
<circle cx="59.5" cy="210.5" r="27.5" fill="#9672FF"/>
<rect x="107" y="199" width="129" height="24" rx="10" fill="#9489B8"/>
<rect x="302" y="98" width="1104" height="246" rx="25" fill="#121B2B"/>
<rect x="302" y="378" width="1104" height="488" rx="25" fill="#121B2B"/>
<rect x="336" y="132" width="321" height="178" rx="25" fill="#151E2D"/>
<circle cx="410.5" cy="206.5" r="50.5" fill="#9672FF"/>
<rect x="485" y="166" width="124" height="40" rx="10" fill="#9489B8"/>
<rect x="485" y="233" width="86" height="24" rx="10" fill="#4C4E5B"/>
<rect x="691" y="132" width="321" height="178" rx="25" fill="#151E2D"/>
<circle cx="765.5" cy="206.5" r="50.5" fill="#407184"/>
<rect x="840" y="166" width="124" height="40" rx="10" fill="#407184"/>
<rect x="840" y="233" width="86" height="24" rx="10" fill="#4C4E5B"/>
<rect x="1046" y="132" width="321" height="178" rx="25" fill="#151E2D"/>
<circle cx="1120.5" cy="206.5" r="50.5" fill="#876F8D"/>
<rect x="1195" y="166" width="124" height="40" rx="10" fill="#876F8D"/>
<rect x="1195" y="233" width="86" height="24" rx="10" fill="#4C4E5B"/>
<rect x="336" y="412" width="501" height="420" rx="25" fill="#151E2D"/>
<rect x="871" y="412" width="501" height="420" rx="25" fill="#151E2D"/>
<rect x="370" y="446" width="258" height="24" rx="10" fill="#2D2F3B"/>
<rect x="905" y="446" width="258" height="24" rx="10" fill="#2D2F3B"/>
<rect x="370" y="547" width="65" height="251" rx="10" fill="#6F6A8B"/>
<rect x="462" y="620" width="65" height="178" rx="10" fill="#6F6A8B"/>
<rect x="554" y="663" width="65" height="135" rx="10" fill="#6F6A8B"/>
<rect x="646" y="575" width="65" height="223" rx="10" fill="#6F6A8B"/>
<rect x="738" y="636" width="65" height="162" rx="10" fill="#6F6A8B"/>
<rect x="769" y="446" width="34" height="24" rx="10" fill="#2D2F3B"/>
<rect x="1304" y="446" width="34" height="24" rx="10" fill="#2D2F3B"/>
<circle cx="1121" cy="663" r="132" fill="#876F8D"/>
<path fill-rule="evenodd" clip-rule="evenodd" d="M105.686 108.655C99.4379 114.904 99.4379 125.034 105.686 131.283L123.853 149.45C130.102 155.698 140.232 155.698 146.481 149.45L164.648 131.283C170.896 125.034 170.896 114.904 164.648 108.655L146.481 90.488C140.232 84.2397 130.102 84.2397 123.853 90.488L105.686 108.655ZM125.296 134.259C127.678 136.576 131.008 137.735 135.284 137.735C138.124 137.735 140.588 137.196 142.677 136.119C144.766 135.009 146.366 133.459 147.475 131.468C148.585 129.477 149.14 127.143 149.14 124.466V119.766C149.14 119.407 149.026 119.129 148.797 118.934C148.602 118.705 148.34 118.591 148.014 118.591H136.949C136.622 118.591 136.345 118.705 136.116 118.934C135.92 119.162 135.822 119.44 135.822 119.766V121.333C135.822 121.692 135.92 121.986 136.116 122.214C136.345 122.41 136.622 122.508 136.949 122.508H144.293V124.564C144.293 127.567 143.477 129.82 141.845 131.321C140.213 132.823 138.026 133.573 135.284 133.573C132.575 133.573 130.453 132.839 128.919 131.37C127.385 129.868 126.552 127.551 126.422 124.417C126.389 123.438 126.373 121.986 126.373 120.06C126.373 118.101 126.389 116.649 126.422 115.702C126.552 112.601 127.385 110.316 128.919 108.847C130.453 107.379 132.575 106.644 135.284 106.644C137.634 106.644 139.495 107.166 140.866 108.211C142.269 109.255 143.216 110.512 143.705 111.981C143.836 112.34 143.966 112.585 144.097 112.715C144.26 112.813 144.505 112.862 144.831 112.862H147.72C148.014 112.862 148.259 112.781 148.455 112.618C148.65 112.454 148.748 112.242 148.748 111.981V111.883C148.683 110.61 148.145 109.239 147.133 107.77C146.121 106.301 144.603 105.061 142.579 104.049C140.588 103.005 138.156 102.482 135.284 102.482C131.04 102.482 127.727 103.641 125.345 105.959C122.962 108.276 121.689 111.442 121.526 115.457C121.493 116.404 121.477 117.938 121.477 120.06C121.477 122.149 121.493 123.683 121.526 124.662C121.689 128.71 122.945 131.909 125.296 134.259Z" fill="#8B5CF6"/>
<rect x="2" y="2" width="1436" height="896" rx="23" stroke="#4C4E5B" stroke-width="4"/>
</svg>
